<?xml version="1.0" encoding="UTF-8" standalone="no"?>
<svg
   xmlns:dc="http://purl.org/dc/elements/1.1/"
   xmlns:cc="http://creativecommons.org/ns#"
   xmlns:rdf="http://www.w3.org/1999/02/22-rdf-syntax-ns#"
   xmlns:svg="http://www.w3.org/2000/svg"
   xmlns="http://www.w3.org/2000/svg"
   viewBox="0 0 485.78668 114.66667"
   height="114.66667"
   width="485.78668"
   xml:space="preserve"
   id="svg2"
   version="1.1"><metadata
     id="metadata8"><rdf:RDF><cc:Work
         rdf:about=""><dc:format>image/svg+xml</dc:format><dc:type
           rdf:resource="http://purl.org/dc/dcmitype/StillImage" /></cc:Work></rdf:RDF></metadata><defs
     id="defs6" /><g
     transform="matrix(1.3333333,0,0,-1.3333333,0,114.66667)"
     id="g10"><g
       transform="scale(0.1)"
       id="g12"><path
         id="path14"
         style="fill:none;stroke:#ffffff;stroke-width:20;stroke-linecap:butt;stroke-linejoin:miter;stroke-miterlimit:10;stroke-dasharray:none;stroke-opacity:1"
         d="m 432.5,535 c 10.082,0 18.59,-2.449 25.512,-6.582 v 31.75 c 0,36.234 -29.649,65.879 -65.883,65.879 -36.231,0 -65.879,-29.645 -65.879,-65.879 v -21.246 c 4.688,-19.547 35.863,-1.293 43.285,-6.664 4.254,1.133 8.86,1.805 13.903,1.805 9.214,0 17.035,-2.122 23.609,-5.622 6.918,4.118 15.398,6.559 25.453,6.559 z" /><path
         id="path16"
         style="fill:none;stroke:#ffffff;stroke-width:20;stroke-linecap:butt;stroke-linejoin:miter;stroke-miterlimit:10;stroke-dasharray:none;stroke-opacity:1"
         d="m 439.121,453.953 v 0 c -36.234,0 -65.883,29.645 -65.883,65.883 v 40.332 c 0,36.234 29.649,65.879 65.883,65.879 v 0 c 36.231,0 65.879,-29.645 65.879,-65.879 v -40.332 c 0,-36.238 -29.648,-65.883 -65.879,-65.883 z" /><path
         id="path18"
         style="fill:#ffffff;fill-opacity:1;fill-rule:nonzero;stroke:none"
         d="m 565.625,265.625 -34.375,-16.875 17.5,269.043 -0.625,4.082 35,-14.375 z M 450.668,478.961 c -10.723,0 -19.418,8.691 -19.418,19.418 0,10.723 8.695,19.414 19.418,19.414 10.723,0 19.422,-8.691 19.422,-19.414 0,-10.727 -8.699,-19.418 -19.422,-19.418 z m -113.332,0 c -10.727,0 -19.422,8.691 -19.422,19.418 0,10.723 8.695,19.414 19.422,19.414 10.727,0 19.418,-8.691 19.418,-19.414 0,-10.727 -8.691,-19.418 -19.418,-19.418 z M 550,545 H 238.336 L 261.664,221.672 H 520 L 583.336,250 601.664,523.336 550,545" /><path
         id="path20"
         style="fill:#ffffff;fill-opacity:1;fill-rule:nonzero;stroke:none"
         d="m 1130.55,624.457 c -9.84,16.402 -36.9,31.984 -68.06,31.984 -40.19,0 -59.45,-16.812 -59.45,-38.128 0,-25.012 29.51,-31.985 63.96,-36.083 59.86,-7.382 115.62,-22.96 115.62,-91.429 0,-63.965 -56.58,-91.438 -120.54,-91.438 -58.63,0 -103.736,18.039 -125.053,70.524 l 45.098,23.371 c 12.711,-31.57 45.925,-45.508 80.775,-45.508 34.03,0 66.01,11.891 66.01,43.051 0,27.058 -28.29,38.129 -66.42,42.226 -58.63,6.973 -112.756,22.555 -112.756,86.922 0,59.039 58.216,83.231 111.106,83.641 44.7,0 91.03,-12.711 112.76,-56.988 l -43.05,-22.145" /><path
         id="path22"
         style="fill:#ffffff;fill-opacity:1;fill-rule:nonzero;stroke:none"
         d="M 1274.86,693.75 V 581.41 c 18.04,23.371 40.18,30.34 63.14,30.34 57.4,0 82.82,-38.953 82.82,-98.398 V 406.746 h -50.02 v 106.192 c 0,36.902 -19.27,52.484 -45.92,52.484 -29.52,0 -50.02,-25.012 -50.02,-55.356 v -103.32 h -50.02 V 693.75 h 50.02" /><path
         id="path24"
         style="fill:#ffffff;fill-opacity:1;fill-rule:nonzero;stroke:none"
         d="m 1503.64,507.605 c 0,-30.746 18.44,-59.445 54.93,-59.445 36.5,0 54.95,28.699 54.95,59.445 0,30.344 -21.32,59.868 -54.95,59.868 -36.07,0 -54.93,-29.524 -54.93,-59.868 z m 160.31,0 c 0,-58.214 -39.78,-105.371 -105.38,-105.371 -65.6,0 -104.96,47.157 -104.96,105.371 0,57.817 40.18,105.375 104.56,105.375 64.37,0 105.78,-47.558 105.78,-105.375" /><path
         id="path26"
         style="fill:#ffffff;fill-opacity:1;fill-rule:nonzero;stroke:none"
         d="m 1810.31,565.012 c 36.08,0 57.4,-25.832 57.4,-57.407 0,-31.566 -23.36,-57.394 -57.4,-57.394 -34.03,0 -57.39,25.828 -57.39,57.394 0,31.575 21.31,57.407 57.39,57.407 z M 1748.4,359.375 v 71.152 c 14.35,-22.136 45.92,-28.703 67.24,-28.703 64.78,0 102.09,46.746 102.09,105.781 0,59.458 -41.41,105.786 -103.73,105.786 -22.96,0 -50.02,-9.84 -65.6,-32.391 l -3.28,27.883 h -46.74 V 359.375 h 50.02" /><path
         id="path28"
         style="fill:#ffffff;fill-opacity:1;fill-rule:nonzero;stroke:none"
         d="m 2066.56,450.211 c -34.03,0 -57.4,25.828 -57.4,57.394 0,31.575 21.32,57.407 57.4,57.407 36.08,0 57.4,-25.832 57.4,-57.407 0,-31.566 -23.36,-57.394 -57.4,-57.394 z m 3.69,163.18 c -22.96,0 -50.02,-9.84 -65.6,-32.391 l -3.28,27.883 h -46.74 V 359.375 h 50.02 v 71.152 c 14.35,-22.136 45.92,-28.703 67.24,-28.703 64.78,0 102.09,46.746 102.09,105.781 0,59.458 -41.41,105.786 -103.73,105.786" /><path
         id="path30"
         style="fill:#ffffff;fill-opacity:1;fill-rule:nonzero;stroke:none"
         d="M 2210.88,609.703 V 406.746 h 50.02 v 202.957 z m 54.53,56.164 c 0,-38.949 -59.04,-38.949 -59.04,0 0,38.953 59.04,38.953 59.04,0" /><path
         id="path32"
         style="fill:#ffffff;fill-opacity:1;fill-rule:nonzero;stroke:none"
         d="m 2454.82,406.746 v 105.781 c 0,30.754 -16.8,54.121 -48.78,54.121 -30.76,0 -51.66,-25.828 -51.66,-56.582 v -103.32 h -49.61 v 202.547 h 44.68 l 3.28,-27.473 c 20.51,20.09 41.01,30.336 66.43,30.336 47.56,0 85.69,-35.668 85.69,-99.218 V 406.746 h -50.03" /><path
         id="path34"
         style="fill:#ffffff;fill-opacity:1;fill-rule:nonzero;stroke:none"
         d="m 2587.26,512.938 c 0,-35.258 23.78,-56.168 52.89,-56.168 28.7,0 52.48,21.32 52.48,56.168 0,34.851 -23.78,56.996 -52.48,56.996 -29.11,0 -52.89,-21.735 -52.89,-56.996 z m 119.31,116.441 36.9,-27.879 -22.55,-28.703 c 15.57,-17.625 21.32,-37.719 21.32,-59.859 0,-25.008 -9.43,-60.266 -42.64,-75.438 33.62,-16.816 41.82,-41.008 41.82,-66.836 0,-55.762 -42.64,-90.195 -101.27,-90.195 -58.64,0 -102.5,35.664 -102.5,90.195 h 49.61 c 0,-26.238 24.19,-43.457 52.89,-43.457 28.7,0 51.25,15.574 51.25,43.457 0,27.883 -26.24,40.598 -51.25,40.598 -63.14,0 -102.5,38.539 -102.5,101.676 0,63.14 45.91,102.5 102.5,102.5 15.98,0 32.39,-2.047 46.32,-11.477 l 20.1,25.418" /><path
         id="path36"
         style="fill:#ffffff;fill-opacity:1;fill-rule:nonzero;stroke:none"
         d="M 2832.02,693.75 V 456.77 h 147.6 V 406.746 H 2777.9 V 693.75 h 54.12" /><path
         id="path38"
         style="fill:#ffffff;fill-opacity:1;fill-rule:nonzero;stroke:none"
         d="M 3014.05,609.703 V 406.746 h 50.02 v 202.957 z m 54.53,56.164 c 0,-38.949 -59.03,-38.949 -59.03,0 0,38.953 59.03,38.953 59.03,0" /><path
         id="path40"
         style="fill:#ffffff;fill-opacity:1;fill-rule:nonzero;stroke:none"
         d="m 3241.19,555.172 c -14.34,13.527 -30.74,18.035 -50.02,18.035 -23.78,0 -36.89,-7.379 -36.89,-20.086 0,-13.121 11.88,-20.504 37.71,-22.141 38.14,-2.46 86.52,-11.074 86.52,-64.785 0,-35.668 -29.12,-66.422 -86.93,-66.422 -31.98,0 -63.95,5.332 -93.47,36.086 l 24.6,35.668 c 14.34,-15.992 47.14,-27.879 69.69,-28.289 18.86,-0.41 36.5,9.434 36.5,24.188 0,13.941 -11.49,19.683 -40.19,21.324 -38.12,2.871 -83.63,16.809 -83.63,62.73 0,46.739 48.38,63.137 85.27,63.137 31.57,0 55.35,-6.144 78.72,-26.648 l -27.88,-32.797" /><path
         id="path42"
         style="fill:#ffffff;fill-opacity:1;fill-rule:nonzero;stroke:none"
         d="m 3381.01,665.867 v -57.394 h 55.76 V 565.422 H 3380.6 V 478.09 c 0,-19.274 10.65,-28.699 26.24,-28.699 7.78,0 16.8,2.461 24.19,6.144 l 13.93,-42.637 c -14.34,-5.742 -26.24,-8.203 -41.41,-8.613 -43.87,-1.64 -72.56,23.371 -72.56,73.805 v 87.332 h -37.73 v 43.051 h 37.73 v 52.07 l 50.02,5.324" /><path
         id="path44"
         style="fill:#ffffff;fill-opacity:1;fill-rule:nonzero;stroke:none"
         d="m 3606.08,555.172 c -14.34,13.527 -30.74,18.035 -50.02,18.035 -23.77,0 -36.89,-7.379 -36.89,-20.086 0,-13.121 11.88,-20.504 37.71,-22.141 38.14,-2.46 86.52,-11.074 86.52,-64.785 0,-35.668 -29.11,-66.422 -86.93,-66.422 -31.98,0 -63.95,5.332 -93.47,36.086 l 24.6,35.668 c 14.34,-15.992 47.15,-27.879 69.69,-28.289 18.86,-0.41 36.5,9.434 36.5,24.188 0,13.941 -11.49,19.683 -40.19,21.324 -38.12,2.871 -83.63,16.809 -83.63,62.73 0,46.739 48.38,63.137 85.27,63.137 31.58,0 55.36,-6.144 78.72,-26.648 l -27.88,-32.797" /><g
         transform="scale(10)"
         id="g46"><text
           id="text50"
           style="font-variant:normal;font-size:16.00010681px;font-family:Magnolia;-inkscape-font-specification:Magnolia-Script;writing-mode:lr-tb;fill:#ffffff;fill-opacity:1;fill-rule:nonzero;stroke:none"
           transform="matrix(0.999957,0.00931994,0.00931994,-0.999957,93.9082,19.991)"><tspan
             id="tspan48"
             y="0"
             x="0 10.175756 19.199099 27.615492 36.463551 45.310619 49.503189 58.527027 67.358467 70.798065 85.230286 94.062706 102.90978 110.04583 113.48543 122.68504 131.51648 138.73262 142.92519 150.06223">Shopping Made Easier</tspan></text>
</g><path
         id="path52"
         style="fill:none;stroke:#ffffff;stroke-width:18;stroke-linecap:butt;stroke-linejoin:miter;stroke-miterlimit:10;stroke-dasharray:none;stroke-opacity:1"
         d="M 27.5,430 C 27.5,207.703 207.703,27.5 430,27.5 652.297,27.5 832.5,207.703 832.5,430 832.5,652.297 652.297,832.5 430,832.5 207.703,832.5 27.5,652.297 27.5,430 Z" /><path
         id="path54"
         style="fill:none;stroke:#ffffff;stroke-width:10;stroke-linecap:butt;stroke-linejoin:miter;stroke-miterlimit:10;stroke-dasharray:none;stroke-opacity:1"
         d="M 50,430 C 50,220.129 220.133,50 430,50 639.867,50 810,220.129 810,430 810,639.867 639.867,810 430,810 220.133,810 50,639.867 50,430 Z" /><path
         id="path56"
         style="fill:none;stroke:#ffffff;stroke-width:10;stroke-linecap:butt;stroke-linejoin:miter;stroke-miterlimit:10;stroke-dasharray:none;stroke-opacity:1"
         d="M 5,430 C 5,195.281 195.277,5 430,5 664.723,5 855,195.281 855,430 855,664.723 664.723,855 430,855 195.277,855 5,664.723 5,430 Z" /></g></g></svg>